P1
# Created by GIMP version 2.10.32 PNM plug-in
7 5
10000000111110111111001111011100111