P1
# Created by GIMP version 2.10.32 PNM plug-in
13 13
1100011100011111111111111101111010111100111101011110011110101111011000
1110001111111111111111100011100011011110101111001111010111100111101011
11011111111111111100011100011